<?xml version="1.0" encoding="UTF-8" standalone="no"?>
<svg
   width="312"
   height="312"
   viewBox="0 0 312 312.00001"
   version="1.1"
   id="svg56"
   sodipodi:docname="9036_color.svg"
   inkscape:version="1.4 (e7c3feb1, 2024-10-09)"
   inkscape:export-filename="icon.svg"
   inkscape:export-xdpi="96"
   inkscape:export-ydpi="96"
   xmlns:inkscape="http://www.inkscape.org/namespaces/inkscape"
   xmlns:sodipodi="http://sodipodi.sourceforge.net/DTD/sodipodi-0.dtd"
   xmlns="http://www.w3.org/2000/svg"
   xmlns:svg="http://www.w3.org/2000/svg">
  <sodipodi:namedview
     id="namedview56"
     pagecolor="#ffffff"
     bordercolor="#000000"
     borderopacity="0"
     inkscape:showpageshadow="2"
     inkscape:pageopacity="0.0"
     inkscape:pagecheckerboard="true"
     inkscape:deskcolor="#d1d1d1"
     showborder="true"
     inkscape:zoom="3.0578857"
     inkscape:cx="138.6579"
     inkscape:cy="112.16901"
     inkscape:window-width="1512"
     inkscape:window-height="945"
     inkscape:window-x="0"
     inkscape:window-y="37"
     inkscape:window-maximized="0"
     inkscape:current-layer="svg56">
    <inkscape:page
       x="0"
       y="0"
       width="312"
       height="312"
       id="page2"
       margin="0"
       bleed="0" />
  </sodipodi:namedview>
  <defs
     id="defs1">
    <style
       id="style1">.a{fill:#6dbf6b;}.b{fill:#8acc89;}.c{fill:#a095c1;}.d{fill:#3f88c9;}.e{fill:#211715;}.f{fill:#cfcae0;}.g{fill:#9fc3e4;}.h{fill:#c6dcef;}</style>
  </defs>
  <path
     class="a"
     d="m 49.032654,175.74097 c -12.957,-2.692 -25.556,-8.486 -33.725,-18.964 -10.4780004,-13.441 -14.1450004,-33.065 -11.9250004,-49.957 10.6120004,-1.486 30.9900004,-9.907999 44.9400004,-9.168999 a 50.311,50.311 0 0 1 19.484,4.993999 c 0,0 18.642,6.4 8.91,40.229 -9.732,33.829 -27.684,32.867 -27.684,32.867 z"
     id="path1" />
  <path
     class="a"
     d="m 285.28965,186.79797 c 10.746,9.05 18.385,23.809 21.741,38.464 1.4,6.12 2.61,17.2 2.074,19.865 -1.941,1.949 -7.148,4.276 -12.261,6.046 -23.828,8.248 -53.089,9.321 -72.032,-2.6 -4.12,-2.593 -10.74,-9.444 -13.521,-15.006 0,0 -14.754,-26.958 16.3,-47.35 33.527,-22.018 57.699,0.581 57.699,0.581 z"
     id="path3" />
  <path
     class="c"
     d="m 291.58765,111.31497 a 4.081,4.081 0 0 1 -0.9,-3.874 c 2.469,-8.424999 1.924,-18.459999 -2.537,-25.864999 -4.852,-8.052 -13.765,-13.15 -23.551,-14.077 h -0.013 a 4.123,4.123 0 0 1 -3.5,-2.668 33.655,33.655 0 0 0 -5.751,-9.43 c -6.268,-7.5 -20.441,-14.171 -34.534,-8.275 a 30.194,30.194 0 0 0 -11.388,8.5 4.015,4.015 0 0 1 -4.955,0.953 c -10.756,-5.72 -24.886,-4.208 -35.029,2.759 -5.268,3.618 -11.9,8.936 -13.665,20.024 0,0 -0.3,3.774 -0.46,9.926 a 28.071,28.071 0 0 1 12.561,2.611 c 9.418,4.609 13.6,8.960999 17.663,16.726999 0.855,1.633 1.351,3.616 2.92,4.582 a 7.485,7.485 0 0 0 3.307,0.867 q 0.306,0.027 0.612,0.059 a 34.436,34.436 0 0 1 25.32,16.464 37.88,37.88 0 0 1 3.064,31.605 c 9.5,6.221 11.864,17.789 10.879,29.351 0.068,0.03 0.138,0.051 0.205,0.085 5.625,2.874 15.854,5.934 24.138,4.017 10.572,-2.446 17.615,-6.882 22.039,-15.485 a 29.625,29.625 0 0 0 2.844,-14.359 4.049,4.049 0 0 1 2.507,-4.031 24.452,24.452 0 0 0 8.486,-5.657 c 5.69,-5.888 7.394,-13.559 7.852,-17.394 1.583,-13.278 -3.102,-21.821 -8.114,-27.415 z"
     id="path4" />
  <path
     class="a"
     d="m 91.392654,242.51697 c -4.017,12.05 -16.026,17.88 -22.341,19.642 a 90.379,90.379 0 0 1 -33.514,2.84 46.744,46.744 0 0 1 22.4,-67.233 c 0,0 13.684,-1.595 25.733,15.553 12.049,17.148 7.722,29.198 7.722,29.198 z"
     id="path5" />
  <path
     class="d"
     d="m 192.36465,114.12797 q -0.306,-0.032 -0.612,-0.059 a 7.485,7.485 0 0 1 -3.307,-0.867 c -1.569,-0.966 -2.065,-2.949 -2.92,-4.582 -4.068,-7.766 -8.245,-12.117999 -17.663,-16.726999 -7.261,-3.553 -15.6,-2.935 -23.945,-1.39 -6.75,1.25 -14.224,6.138 -17.419,12.699999 a 0.369,0.369 0 0 1 -0.545,0.146 c -12.555,-8.568999 -30.399996,-8.353999 -42.936996,0.259 -12.592,8.648 -19.2,25.06 -16.505,40.094 a 0.368,0.368 0 0 1 -0.16,0.375 c -12.603,8.359 -20.064,23.259 -17.211,38.127 1.091,5.686 4.763,13.1 10.336,14.676 -2.861,9.847 -1.351,21.614 4.8,29.816 6.289,8.38 17.789,15.117 27.173,14.327 5.842,14.941 18.925996,23.22 32.242996,25.605 12.535,2.245 26.821,-4.279 31.258,-16.156 a 0.371,0.371 0 0 1 0.63,-0.12 c 4.233,4.684 10.962,7.047 17.532,8.232 9.423,1.7 18.075,0.26 25.026,-5.1 a 36.678,36.678 0 0 0 10.66,-12.359 c 2.733,-5.045 2.835,-12.188 1.153,-17.672 a 0.373,0.373 0 0 1 0.371,-0.483 c 5.056,0.043 9.35,-3.648 12.57,-7.626 3.517,-4.344 7.088,-12.876 8,-18.093 2.32,-13.3 0.927,-27.808 -10.144,-35.056 a 37.88,37.88 0 0 0 -3.064,-31.605 34.436,34.436 0 0 0 -25.32,-16.462 z"
     id="path6" />
  <path
     class="e"
     d="m 283.59465,188.49597 c 13.362,11.355 20.5,29 22.582,46.088 0.252,2.061 0.461,4.131 0.58,6.2 0.047,0.813 0.083,1.629 0.08,2.443 0,0.336 -0.014,0.671 -0.027,1.006 0,0.112 -0.024,0.226 -0.025,0.338 0,0.477 0.089,-0.522 0.01,-0.082 l 0.617,-1.059 c -2.055,1.973 -5.415,3.236 -8.153,4.3 a 104.18,104.18 0 0 1 -10.542,3.425 110.66,110.66 0 0 1 -20.848,3.608 c -13.064,0.954 -27.02,-0.281 -38.772,-6.494 a 34.926,34.926 0 0 1 -8.823,-6.7 37.653,37.653 0 0 1 -7.208,-9.8 2.422,2.422 0 0 0 -3.284,-0.861 2.453,2.453 0 0 0 -0.861,3.284 43.856,43.856 0 0 0 12.471,14.862 47.409,47.409 0 0 0 14.907,7.358 c 11.483,3.635 23.927,4.1 35.83,2.758 a 119.424,119.424 0 0 0 18.45,-3.543 c 6.037,-1.67 12.449,-3.616 17.8,-6.956 a 8.186,8.186 0 0 0 2.806,-2.331 6.057,6.057 0 0 0 0.455,-2.892 57.5,57.5 0 0 0 -0.406,-6.622 95.792,95.792 0 0 0 -2.847,-16 c -3.737,-13.367 -10.7,-26.633 -21.394,-35.722 a 2.463,2.463 0 0 0 -3.394,0 2.421,2.421 0 0 0 0,3.394 z"
     id="path7" />
  <path
     class="e"
     d="m 236.93565,208.82497 a 182.815,182.815 0 0 1 23.047,7.786 81.848,81.848 0 0 1 9.5,4.766 c 3.616,2.027 7.194,4.135 10.636,6.448 a 60.946,60.946 0 0 1 9.034,7.247 c 2.194,2.179 5.59,-1.213 3.394,-3.394 -5.514,-5.476 -12.237,-9.655 -18.949,-13.488 a 111.874,111.874 0 0 0 -10.249,-5.331 c -3.736,-1.648 -7.6,-3.076 -11.434,-4.462 q -6.747,-2.436 -13.7,-4.2 c -3,-0.755 -4.274,3.873 -1.276,4.629 z"
     id="path8" />
  <path
     class="e"
     d="m 242.50165,209.46897 a 10.176,10.176 0 0 1 0.33,1.625 c 0.015,0.1 0.065,0.474 0.006,0.034 -0.059,-0.44 -0.014,-0.1 0,-0.011 0.026,0.219 0.052,0.439 0.076,0.658 q 0.073,0.682 0.129,1.366 a 50.1,50.1 0 0 1 0.162,5.889 2.417,2.417 0 0 0 2.4,2.4 2.45,2.45 0 0 0 2.4,-2.4 50.1,50.1 0 0 0 -0.175,-6.039 c -0.085,-1.023 -0.206,-2.042 -0.35,-3.058 a 10.593,10.593 0 0 0 -0.347,-1.74 2.4003416,2.4003416 0 1 0 -4.628,1.276 z"
     id="path9" />
  <path
     class="e"
     d="m 260.39165,216.55697 c 2.329,7.89 2.467,16.328 2.163,24.487 -0.114,3.089 4.686,3.084 4.8,0 0.319,-8.566 0.11,-17.482 -2.334,-25.763 -0.873,-2.956 -5.507,-1.7 -4.629,1.276 z"
     id="path10" />
  <path
     class="e"
     d="m 59.815654,97.076971 a 51.291,51.291 0 0 0 -13.744,-1.866 63.558,63.558 0 0 0 -10.988,1.256 c -7.525,1.422 -14.851,3.689999 -22.226,5.715999 a 83.111,83.111 0 0 1 -10.1090004,2.323 c -1.13,0.162 -1.643,1.353 -1.76700001,2.314 a 75.989,75.989 0 0 0 3.86700001,35.672 58.474,58.474 0 0 0 8.5370004,15.683 48.54,48.54 0 0 0 14.01,12.091 67.571,67.571 0 0 0 19.716,7.609 c 3.014,0.637 4.3,-3.989 1.276,-4.628 -11.238,-2.377 -22.519,-7.788 -30.1,-16.6 -7.253,-8.435 -11.1530004,-19.717 -12.5340004,-30.635 a 76,76 0 0 1 0.028,-19.192 l -1.761,2.316 c 6.4000004,-0.923 12.6270004,-3.049 18.8400004,-4.769 7.025,-1.945 14.229,-3.919 21.544,-4.3 a 45.664,45.664 0 0 1 14.135,1.64 c 2.987,0.8 4.262,-3.830999 1.276,-4.628999 z"
     id="path11" />
  <path
     class="e"
     d="m 158.07365,79.990971 a 25.591,25.591 0 0 1 4.713,-11.5 26.917,26.917 0 0 1 3.309,-3.558 32.3,32.3 0 0 1 3.293,-2.653 34.509,34.509 0 0 1 24.485,-6.577 29.61,29.61 0 0 1 6.267,1.548 c 2.079,0.755 4.007,2.236 6.3,2.19 2.6,-0.053 4.119,-1.594 5.766,-3.364 a 28.2,28.2 0 0 1 4.579,-4.02 27.553,27.553 0 0 1 27.5,-1.992 28.037,28.037 0 0 1 10.28,8.175 30.844,30.844 0 0 1 4.048,6.82 c 1.166,2.783 2.9,4.434 5.971,4.831 l -1.211,-0.328 c 1.266,0.633 3.137,0.558 4.538,0.859 a 33.2,33.2 0 0 1 4.5,1.3 28.069,28.069 0 0 1 7.578,4.216 25.38,25.38 0 0 1 9.314,15.787 33.041,33.041 0 0 1 0.176,9.852999 c -0.428,3.374 -2.313,6.912 -0.511,10.162 a 27.369,27.369 0 0 0 2.48,3.126 c 0.517,0.672 1.285,1.8 1.828,2.689 a 28.786,28.786 0 0 1 3.1,7 32.374,32.374 0 0 1 1.239,9.1 41.925,41.925 0 0 1 -0.337,5.276 c 0.057,-0.441 -0.012,0.073 -0.037,0.234 -0.039,0.24 -0.078,0.479 -0.12,0.718 q -0.154,0.864 -0.353,1.719 c -1.373,5.926 -4.4,11.745 -9.473,15.319 a 24.486,24.486 0 0 1 -4.09,2.337 7.776,7.776 0 0 0 -3.728,2.776 7.544,7.544 0 0 0 -0.989,4.571 28.312,28.312 0 0 1 -0.23,4.527 24.887,24.887 0 0 1 -7.893,15.219 c -4.2,3.8 -9.762,5.84 -15.222,7.036 -6.252,1.368 -13.1,-0.168 -18.959,-2.423 -1.143,-0.439 -2.225,-0.986 -3.339,-1.488 a 2.475,2.475 0 0 0 -3.284,0.861 2.419,2.419 0 0 0 0.861,3.284 c 6.184,2.783 12.521,4.9 19.384,5.025 a 37.572,37.572 0 0 0 19.059,-5.306 29.072,29.072 0 0 0 11.922,-13.466 32,32 0 0 0 2.45,-10.643 c 0.049,-0.764 0.07,-1.53 0.058,-2.3 a 6.662,6.662 0 0 1 0.015,-1.845 c 0.339,-1.226 1.944,-1.5 2.943,-1.981 12.387,-6.016 17.447,-20.851 15.911,-33.856 a 34.463,34.463 0 0 0 -6.27,-16.4 c -0.793,-1.085 -1.7,-2.07 -2.516,-3.134 -0.892,-1.166 -0.118,-2.488 0.173,-3.772 a 39.146,39.146 0 0 0 0.938,-10.799999 31.181,31.181 0 0 0 -7.791,-19.5 33.206,33.206 0 0 0 -16.959,-9.732 40.3,40.3 0 0 0 -5.136,-0.815 l 1.212,0.327 c -0.74,-0.37 -1.566,-0.248 -2.158,-0.894 -0.721,-0.787 -0.985,-2.159 -1.451,-3.116 a 36.623,36.623 0 0 0 -4.248,-6.572 31.365,31.365 0 0 0 -9.585,-8.071 32.942,32.942 0 0 0 -30,-1.182 33.286,33.286 0 0 0 -8.842,6.348 c -0.7,0.71 -1.315,1.647 -2.079,2.282 a 1.694,1.694 0 0 1 -1.713,0.316 c -1.161,-0.388 -2.281,-1.109 -3.427,-1.566 a 30.963,30.963 0 0 0 -6.656,-1.816 38.544,38.544 0 0 0 -27.627,6.24 38.734,38.734 0 0 0 -8.539,7.578 29.591,29.591 0 0 0 -6.042,13.745 2.473,2.473 0 0 0 1.676,2.952 2.419,2.419 0 0 0 2.952,-1.676 z"
     id="path15" />
  <path
     class="e"
     d="m 56.723654,195.69397 a 50.229,50.229 0 0 0 -22.9,19.533 50.358,50.358 0 0 0 -3.612,44.346 c 0.5,1.238 1.036,2.464 1.629,3.661 0.571,1.151 1.21,2.856 2.238,3.65 1.1,0.846 3.2,0.688 4.54,0.781 q 2.377,0.164 4.761,0.2 a 93.857,93.857 0 0 0 18.416,-1.57 59.025,59.025 0 0 0 12.686,-3.566 c 8.685,-3.727 16.121,-10.5 19.221,-19.574 1,-2.93 -3.634,-4.187 -4.629,-1.276 -2.275,6.677 -7.525,11.734 -13.61,15.057 a 31.441,31.441 0 0 1 -7.05,2.909 84.8,84.8 0 0 1 -15.274,2.844 91.126,91.126 0 0 1 -17.6,-0.089 l 2.072,1.189 a 45.47,45.47 0 0 1 -5.749,-28.86 43.558,43.558 0 0 1 13.263,-26 47.491,47.491 0 0 1 14.023,-9.093 2.415,2.415 0 0 0 0.861,-3.284 2.463,2.463 0 0 0 -3.283,-0.861 z"
     id="path16" />
  <path
     class="e"
     d="m 32.816654,110.64997 a 49.808,49.808 0 0 0 -1.385,10.2 59.353,59.353 0 0 0 0.17,10.231 2.473,2.473 0 0 0 2.4,2.4 2.415,2.415 0 0 0 2.4,-2.4 58.219,58.219 0 0 1 -0.191,-9.845 44.576,44.576 0 0 1 1.238,-9.31 c 0.8,-2.988 -3.831,-4.263 -4.628,-1.276 z"
     id="path17" />
  <path
     class="e"
     d="m 14.384654,119.39897 a 100.062,100.062 0 0 0 38.6,25.105 2.423,2.423 0 0 0 2.952,-1.676 2.449,2.449 0 0 0 -1.676,-2.952 94.811,94.811 0 0 1 -36.482,-23.871 c -2.133,-2.243 -5.523,1.155 -3.394,3.394 z"
     id="path18" />
  <path
     class="e"
     d="m 25.060654,144.39897 a 49.711,49.711 0 0 0 17.237,-4.074 2.417,2.417 0 0 0 0.861,-3.284 2.458,2.458 0 0 0 -3.283,-0.861 q -0.216,0.1 -0.432,0.193 l -0.095,0.038 c -0.3,0.122 -0.611,0.243 -0.92,0.357 -0.636,0.237 -1.279,0.455 -1.927,0.659 -1.337,0.42 -2.695,0.777 -4.063,1.083 q -2.017,0.451 -4.065,0.755 l -0.492,0.07 q 0.348,-0.047 -0.089,0.009 c -0.315,0.037 -0.63,0.075 -0.945,0.108 q -0.894,0.092 -1.789,0.147 a 2.4,2.4 0 1 0 0,4.8 z"
     id="path19" />
  <path
     class="e"
     d="m 48.668654,125.13597 a 72.088,72.088 0 0 0 -0.82,15 2.4,2.4 0 1 0 4.8,0 68.07,68.07 0 0 1 0.648,-13.718 2.463,2.463 0 0 0 -1.677,-2.952 2.426,2.426 0 0 0 -2.951,1.67 z"
     id="path20" />
  <path
     class="e"
     d="m 192.36465,111.72797 c -1,-0.1 -2.314,-0.088 -3.047,-0.9 a 15.637,15.637 0 0 1 -1.72,-3.42 41.4,41.4 0 0 0 -3.607,-5.872 35.555,35.555 0 0 0 -10.569,-9.385999 40.08,40.08 0 0 0 -8.154,-3.869 32.378,32.378 0 0 0 -9.192,-1.4 57.641,57.641 0 0 0 -9.84,0.8 33.808,33.808 0 0 0 -8.309,2.189 29.718,29.718 0 0 0 -7.846,4.934 23.982,23.982 0 0 0 -3,3.124 c -0.514,0.644 -1.013,1.3 -1.466,1.99 a 9.141,9.141 0 0 1 -1.047,1.785999 l 2.335,-0.617 c -0.5,-0.089 -1.221,-0.777 -1.671,-1.042 q -0.987,-0.580999 -2.01,-1.099999 a 39.862,39.862 0 0 0 -14.342,-4.11 40.623,40.623 0 0 0 -43.230996,28.712999 44.368,44.368 0 0 0 -2.011,10.314 39.732,39.732 0 0 0 -0.066,5.118 c 0.044,0.852 0.117,1.7 0.218,2.551 a 17.773,17.773 0 0 1 0.3,2.386 l 0.7,-1.7 a 19.865,19.865 0 0 1 -2.627,1.951 q -1.353,1.056 -2.621,2.212 a 41.661,41.661 0 0 0 -4.611,4.992 42.3,42.3 0 0 0 -6.632,11.951 c -2.972,8.349 -3.014,17.894 0.671,26.019 1.95,4.3 5.191,8.436 9.868,9.85 l -1.676,-2.952 a 38.471,38.471 0 0 0 1.987,26.538 c 3.661,7.862 10.905,14.229 18.73,17.784 a 28.076,28.076 0 0 0 13.57,2.861 l -2.314,-1.762 a 43.737,43.737 0 0 0 24.163996,24.408 40.3,40.3 0 0 0 15.839,3.394 33.229,33.229 0 0 0 16.224,-4.517 27.445,27.445 0 0 0 11.9,-13.836 l -0.617,1.059 0.165,-0.2 -1.059,0.617 0.238,-0.046 -1.849,-0.242 c 0.365,0.2 0.745,0.782 1.083,1.086 0.53,0.476 1.089,0.918 1.657,1.348 a 25,25 0 0 0 3.594,2.27 38.639,38.639 0 0 0 8.058,3.033 43.247,43.247 0 0 0 17.5,1.16 c 10.762,-1.66 20.515,-9.8 25.177,-19.528 a 24.039,24.039 0 0 0 2.218,-9.214 27.49,27.49 0 0 0 -0.19,-4.833 c -0.108,-0.865 -0.234,-1.729 -0.409,-2.583 a 15.21,15.21 0 0 1 -0.475,-1.821 l -0.7,1.7 0.137,-0.177 -1.059,0.617 c 0.433,-0.13 1.222,-0.087 1.76,-0.17 a 12.105,12.105 0 0 0 1.844,-0.423 16.6,16.6 0 0 0 4.014,-1.916 27.361,27.361 0 0 0 6.245,-5.8 45.693,45.693 0 0 0 7.247,-14.044 50.222,50.222 0 0 0 2.39,-14.9 40.767,40.767 0 0 0 -2.145,-14.9 26.262,26.262 0 0 0 -10.125,-13.076 l 1.1,2.711 a 39.952,39.952 0 0 0 -0.177,-26.8 37.592,37.592 0 0 0 -16.578,-19.802 36.189,36.189 0 0 0 -13.941,-4.512 2.415,2.415 0 0 0 -2.4,2.4 2.455,2.455 0 0 0 2.4,2.4 31.727,31.727 0 0 1 19.41,10.157 33.888,33.888 0 0 1 8.659,21.392 34.739,34.739 0 0 1 -2,13.482 2.434,2.434 0 0 0 1.1,2.71 c 5.767,3.841 8.685,10.278 9.575,16.987 a 46.225,46.225 0 0 1 -2.209,21.344 44.383,44.383 0 0 1 -5.045,10.14 c -2,2.907 -4.9,5.905 -8.259,7.206 a 8.9,8.9 0 0 1 -2.5,0.6 c -1.306,0.1 -2.479,0.206 -3.211,1.457 -0.6,1.031 -0.208,2.123 0.06,3.179 a 22.336,22.336 0 0 1 0.545,2.833 20.5,20.5 0 0 1 -1.588,11.565 c -3.462,6.791 -9.6,13.08 -16.883,15.668 -7.668,2.726 -16.335,1.754 -23.869,-0.975 a 26.352,26.352 0 0 1 -5.272,-2.584 17.193,17.193 0 0 1 -2.114,-1.576 9.387,9.387 0 0 0 -2.484,-2.082 2.782,2.782 0 0 0 -3.4,1.226 c -0.441,0.755 -0.688,1.677 -1.1,2.461 a 20.644,20.644 0 0 1 -2.732,4.043 26.87,26.87 0 0 1 -17.508,8.779 c -6.812,0.647 -13.807,-1.317 -19.817,-4.46 a 37.856,37.856 0 0 1 -17.955996,-19.686 2.47,2.47 0 0 0 -2.314,-1.762 c -7.322,0.547 -14.626,-3.2 -20.043,-7.865 a 30.284,30.284 0 0 1 -10.715,-19.927 35.006,35.006 0 0 1 1.1,-13.322 2.441,2.441 0 0 0 -1.676,-2.952 c -2.987,-0.9 -4.993,-3.716 -6.38,-6.373 a 25.308,25.308 0 0 1 -2.7,-9.765 34.289,34.289 0 0 1 5.5,-21.086 38.711,38.711 0 0 1 7.541,-8.574 c 0.62,-0.528 1.254,-1.038 1.912,-1.519 a 8.465,8.465 0 0 0 2.572,-2.121 c 0.591,-1.011 0.233,-2.122 0.08,-3.19 -0.13,-0.919 -0.207,-1.849 -0.26,-2.776 a 39.206,39.206 0 0 1 4.765,-20.977 35.946,35.946 0 0 1 15.532,-15.1 36.9,36.9 0 0 1 22.014996,-3.186999 35.278,35.278 0 0 1 10.772,3.559999 c 1.834,0.974 4.142,3.294 6.242,1.841 a 6.654,6.654 0 0 0 1.647,-2.321 16.837,16.837 0 0 1 1.585,-2.221 24.307,24.307 0 0 1 9.063,-6.584999 38.645,38.645 0 0 1 12.062,-2.366 30.917,30.917 0 0 1 12.741,1.392 37.764,37.764 0 0 1 9.819,5.521 27.833,27.833 0 0 1 6.2,6.655999 46.149,46.149 0 0 1 2.535,4.308 c 0.866,1.658 1.422,3.509 2.837,4.816 1.717,1.588 3.94,1.811 6.157,2.037 a 2.415,2.415 0 0 0 2.4,-2.4 2.454,2.454 0 0 0 -2.391,-2.404 z"
     id="path21" />
  <path
     class="c"
     d="m 269.21365,121.69597 c 0.1,-3.947 -0.9,-8.046 -2.255,-10.252 a 8.454,8.454 0 0 0 -7.224,-3.961 c -2.9,0.072 -4.305,1.158 -5.993,2.721 -2.177,2.016 -3.841,5.749 -4.47,9.813 -3.61,0.4 -8.286,1.045 -10,2.087 -3.823,2.317 -4.764,5.017 -4.783,6.958 -0.034,3.476 1.6,5.286 4.487,7.221 a 21.278,21.278 0 0 0 8.832,3.091 c -0.081,3.838 -0.327,9.23 2.587,12.159 2.41,2.423 5.462,2.792 8.7,1.709 3.7,-1.236 7.164,-7.08 8.146,-11.86 7.69,0.911 11.962,-1.639 13.623,-3.868 a 5.7,5.7 0 0 0 0.689,-5.735 c -0.519,-1.484 -3.285,-6.671 -12.4,-8.91 0.03,-0.388 0.051,-0.78 0.061,-1.173 z"
     id="path26" />
  <path
     class="e"
     d="m 251.54865,120.85197 a 20.96,20.96 0 0 1 1.176,-4.628 14.042,14.042 0 0 1 0.786,-1.715 15.334,15.334 0 0 1 1.039,-1.66 10.786,10.786 0 0 1 1.29,-1.313 5.718,5.718 0 0 1 1.117,-0.872 3.771,3.771 0 0 1 1.562,-0.647 6.015,6.015 0 0 1 1.808,-0.125 6.252,6.252 0 0 1 3.186,1.247 6.031,6.031 0 0 1 1.214,1.267 7.762,7.762 0 0 1 0.506,0.87 c 0.027,0.052 0.307,0.643 0.19,0.373 a 19.668,19.668 0 0 1 1.32,9.3 2.421,2.421 0 0 0 2.4,2.4 2.448,2.448 0 0 0 2.4,-2.4 c 0.461,-5.754 -0.853,-13.153 -6.215,-16.349 a 10.739,10.739 0 0 0 -8.865,-0.983 13.339,13.339 0 0 0 -6.259,5.1 22.789,22.789 0 0 0 -3.455,10.135 2.412,2.412 0 0 0 2.4,2.4 2.461,2.461 0 0 0 2.4,-2.4 z"
     id="path27" />
  <path
     class="e"
     d="m 248.89265,117.65897 a 46.8,46.8 0 0 0 -8.789,1.513 12.382,12.382 0 0 0 -6.727,5.341 9.734,9.734 0 0 0 -1.014,7.158 c 0.63,2.793 2.666,4.775 4.927,6.362 a 22.875,22.875 0 0 0 10.042,3.679 2.482,2.482 0 0 0 2.952,-1.677 2.417,2.417 0 0 0 -1.676,-2.952 19.856,19.856 0 0 1 -9.121,-3.355 7.426,7.426 0 0 1 -2.138,-2.27 c -0.072,-0.134 -0.138,-0.27 -0.2,-0.409 0.1,0.219 0.1,0.193 0,-0.076 -0.075,-0.315 -0.177,-0.619 -0.229,-0.942 0.055,0.338 -0.031,-0.581 -0.033,-0.683 0,-0.26 0.021,-0.515 0.023,-0.773 0.028,-0.266 0.022,-0.224 -0.02,0.126 0.021,-0.119 0.044,-0.238 0.071,-0.355 0.073,-0.245 0.141,-0.491 0.215,-0.735 0.1,-0.253 0.094,-0.251 -0.01,0 0.06,-0.13 0.124,-0.259 0.192,-0.386 a 7.662,7.662 0 0 1 0.482,-0.784 q 0.244,-0.342 0.079,-0.108 c 0.113,-0.136 0.229,-0.268 0.35,-0.4 a 9.9,9.9 0 0 1 0.823,-0.79 14.555,14.555 0 0 1 1.69,-1.137 c 0.236,-0.109 0.225,-0.107 -0.034,0.008 0.137,-0.053 0.275,-0.1 0.413,-0.148 0.309,-0.1 0.622,-0.194 0.936,-0.277 0.728,-0.193 1.467,-0.346 2.208,-0.482 1.549,-0.285 3.039,-0.478 4.59,-0.654 a 2.474,2.474 0 0 0 2.4,-2.4 2.415,2.415 0 0 0 -2.4,-2.4 z"
     id="path28" />
  <path
     class="e"
     d="m 245.39665,139.64297 c -0.117,5.213 -0.064,11.12 4.472,14.588 a 10.326,10.326 0 0 0 8.656,1.662 11.4,11.4 0 0 0 6.42,-4.252 24.092,24.092 0 0 0 4.426,-8.836 c 0.787,-2.99 -3.842,-4.266 -4.629,-1.276 a 18.416,18.416 0 0 1 -3.74,7.375 6.918,6.918 0 0 1 -2.494,2.011 c 0.4,-0.186 -0.543,0.166 -0.659,0.2 a 9.031,9.031 0 0 1 -1.194,0.267 8.572,8.572 0 0 1 -1.669,0 5.469,5.469 0 0 1 -4.262,-4.074 26,26 0 0 1 -0.527,-7.662 c 0.069,-3.09 -4.731,-3.089 -4.8,0 z"
     id="path29" />
  <path
     class="e"
     d="m 270.20665,125.64997 a 19.257,19.257 0 0 1 3.658,1.533 c 0.531,0.292 1.049,0.607 1.549,0.948 0.216,0.147 0.427,0.3 0.637,0.454 -0.36,-0.267 0.319,0.267 0.408,0.344 a 20.972,20.972 0 0 1 1.842,1.906 c 0.211,0.233 -0.254,-0.393 -0.1,-0.131 0.035,0.061 0.087,0.115 0.126,0.173 0.1,0.148 0.2,0.293 0.3,0.444 0.165,0.256 0.321,0.52 0.463,0.791 0.051,0.1 0.1,0.2 0.148,0.3 0.215,0.408 -0.138,-0.122 -0.094,-0.238 -0.012,0.031 0.082,0.206 0.094,0.245 a 9.727,9.727 0 0 1 0.33,1.2 4.961,4.961 0 0 1 0.01,1.072 c -0.026,0.11 -0.282,0.864 -0.147,0.566 a 6.616,6.616 0 0 1 -0.493,0.846 c -0.373,0.581 0.365,-0.371 -0.094,0.117 -0.109,0.116 -0.215,0.236 -0.328,0.349 -0.113,0.113 -0.243,0.237 -0.37,0.349 -0.076,0.067 -0.156,0.129 -0.232,0.2 -0.317,0.285 0.3,-0.174 0.045,-0.036 -0.349,0.189 -0.667,0.452 -1.016,0.647 q -0.285,0.159 -0.577,0.3 c -0.117,0.056 -0.234,0.109 -0.351,0.163 0.31,-0.145 0.134,-0.051 -0.079,0.028 a 17.858,17.858 0 0 1 -8.808,0.754 2.415,2.415 0 0 0 -2.4,2.4 2.458,2.458 0 0 0 2.4,2.4 c 5.188,0.6 11.756,-0.062 15.318,-4.409 3.531,-4.309 1.661,-9.739 -1.95,-13.238 a 22.69,22.69 0 0 0 -9.012,-5.1 2.4003416,2.4003416 0 0 0 -1.276,4.628 z"
     id="path30" />
  <path
     class="e"
     d="m 259.19365,126.46197 a 4.62,4.62 0 0 0 -4.132,7.966 4.657,4.657 0 1 0 4.132,-7.966 z"
     id="path31" />
  <path
     class="f"
     d="m 235.17965,77.255971 c 0,-3.948 -1.109,-8.02 -2.52,-10.19 a 8.452,8.452 0 0 0 -7.324,-3.773 c -2.9,0.147 -4.274,1.27 -5.921,2.876 -2.123,2.071 -3.69,5.846 -4.214,9.925 -3.6,0.489 -8.256,1.259 -9.947,2.345 -3.763,2.416 -4.633,5.139 -4.6,7.08 0.056,3.476 1.735,5.242 4.673,7.1 a 21.285,21.285 0 0 0 8.908,2.862 c 0.019,3.838 -0.087,9.234999 2.9,12.087999 2.472,2.359 5.532,2.649 8.744,1.482 3.663,-1.331 6.978,-7.262 7.836,-12.066999 7.711,0.712 11.916,-1.948 13.519,-4.219 a 5.7,5.7 0 0 0 0.54,-5.751 c -0.558,-1.47 -3.457,-6.584 -12.628,-8.586 q 0.035,-0.581 0.034,-1.172 z"
     id="path32" />
  <path
     class="e"
     d="m 217.50265,76.935971 a 16.594,16.594 0 0 1 2.96,-8.364 6.469,6.469 0 0 1 5.465,-2.88 6.259,6.259 0 0 1 5.367,3.891 20.187,20.187 0 0 1 1.447,8.931 2.4,2.4 0 1 0 4.8,0 c 0.309,-5.733 -1.15,-13.163 -6.584,-16.214 a 10.762,10.762 0 0 0 -8.881,-0.8 13.226,13.226 0 0 0 -6.154,5.222 22.807,22.807 0 0 0 -3.22,10.215 2.415,2.415 0 0 0 2.4,2.4 2.453,2.453 0 0 0 2.4,-2.4 z"
     id="path33" />
  <path
     class="e"
     d="m 214.18465,73.835971 a 40.747,40.747 0 0 0 -8.33,1.715 12.263,12.263 0 0 0 -6.507,5.6 9.724,9.724 0 0 0 -0.67,7.322 c 0.839,2.709 2.878,4.569 5.193,6.068 a 24.076,24.076 0 0 0 10.53,3.362 2.414,2.414 0 0 0 2.4,-2.4 2.457,2.457 0 0 0 -2.4,-2.4 18.993,18.993 0 0 1 -8.8,-3.171 7.7,7.7 0 0 1 -1.252,-1.071 c -0.064,-0.065 -0.618,-0.744 -0.369,-0.4 -0.178,-0.248 -0.317,-0.512 -0.475,-0.772 -0.12,-0.255 -0.134,-0.272 -0.043,-0.053 -0.057,-0.147 -0.109,-0.3 -0.155,-0.445 a 6.309,6.309 0 0 1 -0.224,-0.96 c 0.043,0.3 -0.03,-0.609 -0.031,-0.716 0,-0.2 0.012,-0.392 0.019,-0.588 0.007,-0.196 0,-0.116 -0.036,0.2 0.018,-0.123 0.04,-0.245 0.066,-0.367 0.059,-0.258 0.141,-0.508 0.208,-0.764 0.1,-0.254 0.093,-0.261 -0.01,-0.02 0.06,-0.136 0.125,-0.271 0.194,-0.4 a 7.921,7.921 0 0 1 0.492,-0.821 9.263,9.263 0 0 1 1.316,-1.386 10.234,10.234 0 0 1 1.628,-1.11 c 0.239,-0.109 0.237,-0.11 -0.007,0 0.141,-0.055 0.284,-0.107 0.428,-0.156 0.317,-0.11 0.639,-0.206 0.962,-0.3 0.739,-0.206 1.488,-0.375 2.239,-0.529 1.626,-0.332 3.267,-0.583 4.91,-0.813 a 2.415,2.415 0 0 0 1.676,-2.953 2.464,2.464 0 0 0 -2.952,-1.676 z"
     id="path34" />
  <path
     class="e"
     d="m 211.83465,95.750971 c 0.018,5.237999 0.212,11.122999 4.822,14.519999 a 10.289,10.289 0 0 0 8.625,1.474 11.724,11.724 0 0 0 6.563,-4.656 23.272,23.272 0 0 0 4.022,-8.674999 2.4006076,2.4006076 0 0 0 -4.628,-1.278 19.272,19.272 0 0 1 -3.341,7.266999 8.031,8.031 0 0 1 -2.611,2.306 q -0.388,0.184 -0.046,0.028 c -0.2,0.074 -0.411,0.143 -0.62,0.207 -0.3,0.093 -0.61,0.174 -0.921,0.241 a 6.089,6.089 0 0 1 -1.9,0.11 5.176,5.176 0 0 1 -2.973,-1.423 5.849,5.849 0 0 1 -1.5,-2.607 25.833,25.833 0 0 1 -0.7,-7.515999 c -0.011,-3.088 -4.811,-3.094 -4.8,0 z"
     id="path35" />
  <path
     class="e"
     d="m 236.21465,81.167971 a 19.5,19.5 0 0 1 3.7,1.423 c 0.538,0.277 1.064,0.579 1.573,0.906 0.22,0.142 0.436,0.287 0.649,0.438 0.116,0.083 0.231,0.167 0.346,0.252 -0.267,-0.2 -0.069,-0.056 0.081,0.069 a 15,15 0 0 1 1.89,1.857 c 0.22,0.262 0.271,0.386 0.038,0.032 0.1,0.149 0.211,0.288 0.312,0.435 0.172,0.253 0.334,0.512 0.483,0.779 0.1,0.181 0.175,0.382 0.282,0.557 0.144,0.234 -0.215,-0.661 -0.111,-0.262 0.108,0.417 0.276,0.816 0.372,1.24 a 1.845,1.845 0 0 1 0.061,0.634 c 0,0.046 -0.018,0.59 0,0.338 0.019,-0.212 -0.035,0.189 -0.035,0.188 -0.039,0.165 -0.084,0.324 -0.131,0.487 -0.012,0.043 -0.174,0.412 -0.042,0.127 -0.146,0.316 -0.356,0.588 -0.528,0.888 -0.149,0.257 0.382,-0.421 -0.017,0.015 -0.108,0.118 -0.213,0.238 -0.325,0.353 -0.112,0.115 -0.241,0.239 -0.367,0.352 -0.074,0.068 -0.156,0.13 -0.229,0.2 -0.31,0.3 0.3,-0.19 0.051,-0.032 -0.338,0.216 -0.655,0.458 -1,0.659 q -0.281,0.162 -0.569,0.309 c -0.115,0.058 -0.232,0.11 -0.346,0.168 -0.4,0.208 0.2,-0.071 -0.07,0.037 a 17.722,17.722 0 0 1 -8.684,0.959 2.418,2.418 0 0 0 -2.4,2.4 2.452,2.452 0 0 0 2.4,2.4 c 5.181,0.468 11.63,-0.334 15.142,-4.663 3.541,-4.364 1.608,-9.844 -2.129,-13.282 a 22.666,22.666 0 0 0 -9.121,-4.895 c -2.972,-0.864 -4.241,3.766 -1.276,4.629 z"
     id="path36" />
  <path
     class="e"
     d="m 225.27465,82.322971 a 4.568,4.568 0 0 0 -3.9,7.989 4.888,4.888 0 0 0 5.924,0.43 4.806,4.806 0 0 0 1.794,-4.131 4.855,4.855 0 0 0 -3.818,-4.288 z"
     id="path37" />
  <path
     class="d"
     d="m 194.71465,181.85797 q -0.551,-0.081 -1.128,-0.142 c 0.11,-5.322 -2.168,-12.369 -5.8,-14.573 -3.184,-1.932 -5.739,-2.121 -8.884,-0.126 -3.8,2.412 -5.658,8.042 -6.455,12.146 a 23.2,23.2 0 0 0 -10.135,1.158 c -3.537,1.361 -5.708,2.891 -6.51,6.595 a 9.111,9.111 0 0 0 2.591,7.627 c 1.57,1.53 7.273,4.328 10.95,5.548 -0.312,4.471 0.558,8.841 2.386,11.509 1.418,2.068 2.649,3.561 5.715,4.336 3.026,0.766 5.921,-0.822 8.1,-3.055 a 21.219,21.219 0 0 0 5.612,-11 c 10.248,-0.44 14.285,-3.469 15.195,-4.921 a 8.506,8.506 0 0 0 0.914,-7.36 c -1.169,-2.644 -4.917,-6.614 -12.551,-7.742 z"
     id="path38" />
  <path
     class="e"
     d="m 167.01765,199.17597 c -0.579,6.01 0.638,13.2 5.7,17.127 a 10.072,10.072 0 0 0 9.09,1.785 15.556,15.556 0 0 0 7.337,-5.776 21.993,21.993 0 0 0 4.339,-9.909 2.479,2.479 0 0 0 -1.676,-2.952 2.417,2.417 0 0 0 -2.952,1.676 18.686,18.686 0 0 1 -3.755,8.63 c -1.571,2.019 -4.043,4.431 -6.845,3.9 -2.59,-0.487 -4.1,-2.277 -5.2,-4.567 -1.454,-3.015 -1.551,-6.651 -1.236,-9.918 a 2.418,2.418 0 0 0 -2.4,-2.4 2.452,2.452 0 0 0 -2.4,2.4 z"
     id="path39" />
  <path
     class="e"
     d="m 169.58865,197.64197 a 46.192,46.192 0 0 1 -6.571,-2.942 29.1,29.1 0 0 1 -2.669,-1.625 c -0.14,-0.1 0.234,0.247 -0.083,-0.074 -0.162,-0.164 -0.333,-0.317 -0.489,-0.488 a 6.414,6.414 0 0 1 -0.922,-1.387 6.23,6.23 0 0 1 -0.513,-1.342 c -0.075,-0.27 -0.14,-0.544 -0.191,-0.82 a 1.615,1.615 0 0 1 -0.051,-0.542 7.517,7.517 0 0 1 0.012,-0.849 c -0.036,0.428 0.045,-0.175 0.078,-0.315 a 5.869,5.869 0 0 1 0.461,-1.363 c 0.115,-0.223 0.24,-0.438 0.375,-0.651 0.064,-0.1 0.133,-0.206 0.207,-0.3 -0.034,0.044 -0.176,0.217 0,0.015 0.159,-0.181 0.325,-0.354 0.5,-0.519 0.082,-0.076 0.6,-0.484 0.366,-0.318 a 12.505,12.505 0 0 1 2.713,-1.428 21.705,21.705 0 0 1 9.819,-1.112 2.42,2.42 0 0 0 2.4,-2.4 2.448,2.448 0 0 0 -2.4,-2.4 25.168,25.168 0 0 0 -10.781,1.164 c -2.761,1.021 -5.431,2.41 -7.038,4.982 a 10.2,10.2 0 0 0 -1.02,8.411 11.636,11.636 0 0 0 5.272,6.633 49.375,49.375 0 0 0 9.251,4.3 2.424,2.424 0 0 0 2.952,-1.676 2.448,2.448 0 0 0 -1.676,-2.953 z"
     id="path40" />
  <path
     class="e"
     d="m 174.81865,179.51397 a 23.535,23.535 0 0 1 2.817,-7.735 c 1.249,-2.012 3.514,-4.151 6.173,-3.735 a 6.694,6.694 0 0 1 2.07,0.771 c 0.3,0.163 0.608,0.333 0.894,0.525 0.229,0.162 0.258,0.181 0.088,0.055 q 0.191,0.16 0.369,0.331 a 9.81,9.81 0 0 1 2,2.906 20.284,20.284 0 0 1 1.958,8.2 c 0.106,3.081 4.906,3.095 4.8,0 -0.185,-5.409 -1.9,-12.072 -6.5,-15.431 a 10.228,10.228 0 0 0 -9.2,-1.711 13.182,13.182 0 0 0 -6.875,5.794 27.686,27.686 0 0 0 -3.224,8.753 2.458,2.458 0 0 0 1.677,2.952 2.424,2.424 0 0 0 2.952,-1.676 z"
     id="path41" />
  <path
     class="e"
     d="m 193.07365,204.16197 a 33.442,33.442 0 0 0 10.475,-2.326 10.865,10.865 0 0 0 4.7,-3.422 10.54,10.54 0 0 0 1.034,-10.146 14.068,14.068 0 0 0 -4.623,-5.154 23.127,23.127 0 0 0 -11.2,-3.815 2.415,2.415 0 0 0 -2.4,2.4 2.456,2.456 0 0 0 2.4,2.4 18.531,18.531 0 0 1 7.718,2.459 c 0.265,0.161 0.527,0.329 0.782,0.506 0.1,0.072 0.613,0.451 0.468,0.336 -0.145,-0.115 0.32,0.272 0.406,0.348 q 0.335,0.3 0.648,0.612 c 0.3,0.3 0.577,0.624 0.85,0.952 0.214,0.256 -0.248,-0.353 -0.068,-0.083 0.044,0.067 0.1,0.13 0.141,0.2 0.125,0.195 0.255,0.384 0.372,0.584 0.085,0.144 0.159,0.293 0.241,0.438 0.044,0.077 0.08,0.162 0.118,0.241 -0.021,-0.045 -0.146,-0.421 -0.052,-0.108 a 4.166,4.166 0 0 1 0.248,1.8 8.321,8.321 0 0 1 -1.115,3.458 c -0.164,0.333 0.38,-0.382 0.153,-0.2 -0.093,0.076 -0.174,0.194 -0.259,0.279 -0.085,0.085 -0.185,0.172 -0.276,0.259 -0.34,0.326 -0.014,0.025 0.007,0.012 a 24.376,24.376 0 0 1 -2.17,1.262 c -0.089,0.043 -0.18,0.081 -0.27,0.121 -0.242,0.11 0.333,-0.12 -0.1,0.038 -0.281,0.1 -0.56,0.212 -0.843,0.309 -0.682,0.233 -1.376,0.432 -2.076,0.606 a 34,34 0 0 1 -5.318,0.838 2.462,2.462 0 0 0 -2.4,2.4 2.418,2.418 0 0 0 2.4,2.4 z"
     id="path42" />
  <path
     class="e"
     d="m 181.43965,195.58397 a 4.979,4.979 0 0 1 -2.467,-9.371 5.325,5.325 0 0 1 6.423,0.8 5.2,5.2 0 0 1 -3.956,8.567 z"
     id="path43" />
  <path
     class="g"
     d="m 130.52465,130.21297 q 0.558,-0.008 1.138,0.01 c 0.6,-5.289 3.8,-11.969 7.7,-13.668 3.413,-1.489 5.97,-1.335 8.821,1.062 3.447,2.9 4.532,8.725 4.774,12.9 a 23.2,23.2 0 0 1 9.889,2.5 c 3.323,1.821 5.27,3.627 5.57,7.405 a 9.108,9.108 0 0 1 -3.588,7.212 c -1.759,1.307 -7.783,3.317 -11.591,4.035 -0.29,4.473 -1.736,8.688 -3.9,11.087 -1.681,1.86 -3.1,3.175 -6.243,3.534 -3.1,0.354 -5.758,-1.607 -7.621,-4.111 a 21.185,21.185 0 0 1 -4.088,-11.655 c -10.1,-1.8 -13.7,-5.345 -14.4,-6.906 a 8.505,8.505 0 0 1 0.078,-7.416 c 1.502,-2.459 5.745,-5.892 13.461,-5.989 z"
     id="path44" />
  <path
     class="e"
     d="m 150.88265,150.75597 a 18.763,18.763 0 0 1 -2.566,9.39 7.361,7.361 0 0 1 -5.4,3.762 c -2.72,0.286 -4.827,-1.961 -6.173,-4.094 a 18.243,18.243 0 0 1 -2.97,-9.4 c -0.04,-3.086 -4.841,-3.095 -4.8,0 0.08,6.154 3.106,13.7 8.623,16.968 a 10.1,10.1 0 0 0 9.423,0.284 13.853,13.853 0 0 0 5.759,-5.629 24.533,24.533 0 0 0 2.9,-11.281 c 0.117,-3.089 -4.683,-3.084 -4.8,0 z"
     id="path45" />
  <path
     class="e"
     d="m 154.27865,153.90597 a 49.049,49.049 0 0 0 8.464,-2.576 12.239,12.239 0 0 0 6.534,-5.207 10.405,10.405 0 0 0 1.009,-8.587 11.786,11.786 0 0 0 -5.691,-6.288 25.953,25.953 0 0 0 -11.822,-3.142 2.4,2.4 0 1 0 0,4.8 20.551,20.551 0 0 1 10.163,2.946 6.87,6.87 0 0 1 2.448,2.367 5.006,5.006 0 0 1 0.554,1.652 7.862,7.862 0 0 1 0.077,1.373 7.486,7.486 0 0 1 -1.353,3.206 5.725,5.725 0 0 1 -2.8,2.076 45.04,45.04 0 0 1 -8.855,2.749 2.4003416,2.4003416 0 0 0 1.276,4.628 z"
     id="path46" />
  <path
     class="e"
     d="m 155.33665,130.22597 c -0.4,-5.7 -1.842,-11.883 -6.793,-15.333 a 9.614,9.614 0 0 0 -8.824,-1.049 12.9,12.9 0 0 0 -6.554,5.374 24.925,24.925 0 0 0 -3.7,9.492 2.471,2.471 0 0 0 1.677,2.952 2.42,2.42 0 0 0 2.952,-1.676 21.53,21.53 0 0 1 3.212,-8.346 9.491,9.491 0 0 1 2.405,-2.555 7.057,7.057 0 0 1 3.546,-1.091 c 2.418,-0.011 4.429,2.2 5.491,4.393 a 21.917,21.917 0 0 1 1.784,7.839 2.457,2.457 0 0 0 2.4,2.4 2.421,2.421 0 0 0 2.4,-2.4 z"
     id="path47" />
  <path
     class="e"
     d="m 130.13065,147.84297 a 40.062,40.062 0 0 1 -4.847,-1.362 18.421,18.421 0 0 1 -3.13,-1.4 c -0.408,-0.227 -0.808,-0.469 -1.2,-0.73 -0.2,-0.132 -0.385,-0.272 -0.578,-0.409 0.414,0.294 0.053,0.04 -0.134,-0.121 a 9.11,9.11 0 0 1 -0.691,-0.656 c -0.1,-0.111 -0.2,-0.242 -0.307,-0.348 -0.215,-0.209 0.307,0.522 0.075,0.084 a 5.871,5.871 0 0 1 -0.056,-5.7 c 0.06,-0.089 0.376,-0.515 0.148,-0.22 -0.244,0.316 0.141,-0.161 0.2,-0.232 a 10.973,10.973 0 0 1 0.975,-0.966 c 0.091,-0.08 0.54,-0.446 0.341,-0.292 -0.215,0.167 0.315,-0.223 0.4,-0.282 a 14.457,14.457 0 0 1 1.491,-0.887 c 0.278,-0.144 0.56,-0.281 0.847,-0.406 -0.319,0.14 0.061,-0.025 0.106,-0.042 q 0.3,-0.115 0.6,-0.221 a 18.77,18.77 0 0 1 2.233,-0.626 21.563,21.563 0 0 1 5.174,-0.4 c 3.089,0.082 3.088,-4.718 0,-4.8 -6,-0.159 -12.71,1.519 -16.418,6.6 -2.126,2.913 -2.029,7.264 -0.466,10.408 a 10.325,10.325 0 0 0 3.635,3.659 30.2,30.2 0 0 0 10.319,3.981 2.454,2.454 0 0 0 2.952,-1.677 2.425,2.425 0 0 0 -1.676,-2.952 z"
     id="path48" />
  <path
     class="e"
     d="m 141.87165,145.47497 a 5.088,5.088 0 0 0 5.536,-3.378 4.988,4.988 0 0 0 -1.883,-5.363 5.417,5.417 0 0 0 -6.468,-0.089 5.015,5.015 0 0 0 -1.645,4.506 5.294,5.294 0 0 0 4.46,4.324 z"
     id="path49" />
  <path
     class="h"
     d="m 118.80865,185.35997 c 0.041,-4.412 -1.049,-8.644 -2.984,-11.177 -1.522,-1.992 -2.829,-3.42 -5.93,-4.037 -3.062,-0.608 -5.871,1.126 -7.934,3.469 a 21.179,21.179 0 0 0 -5.035996,11.282 c -10.23,0.893 -13.981,4.661 -14.815,6.158 a 6.717,6.717 0 0 0 -0.395,6.545 c 1.369,2.7 5.39,7.094 13.812,7.555 0.266,5.338 2.02,12.073 5.759996,14.087 3.28,1.766 6.63,1.988 9.669,-0.166 3.674,-2.6 5.236,-8.319 5.823,-12.466 3.239,0.128 7.036,0.266 10.23,-1.156 3.462,-1.541 5.382,-3.7 5.992,-7.439 a 10.183,10.183 0 0 0 -3.095,-7.971 c -1.645,-1.447 -7.356,-3.423 -11.1,-4.49 0.002,-0.065 0.002,-0.129 0.003,-0.194 z"
     id="path50" />
  <path
     class="e"
     d="m 121.17465,186.47097 c 0.276,-6.193 -1.344,-13.3 -6.724,-17.049 a 9.966,9.966 0 0 0 -8.93,-1.225 15.564,15.564 0 0 0 -7.104996,6.12 22.9,22.9 0 0 0 -3.9,10.688 2.418,2.418 0 0 0 2.4,2.4 2.452,2.452 0 0 0 2.4,-2.4 18.2,18.2 0 0 1 3.683996,-8.888 c 1.337,-1.8 3.649,-4.02 6.257,-3.657 2.5,0.348 4.124,2.063 5.311,4.188 1.638,2.93 1.953,6.533 1.807,9.823 -0.138,3.088 4.663,3.081 4.8,0 z"
     id="path51" />
  <path
     class="e"
     d="m 118.56265,187.98197 a 61.878,61.878 0 0 1 7.264,2.524 13.429,13.429 0 0 1 2.609,1.4 c -0.451,-0.334 0.025,0.062 0.18,0.222 0.091,0.094 0.36,0.394 0.36,0.394 a 8.489,8.489 0 0 1 0.958,1.63 9.9,9.9 0 0 1 0.454,1.3 c 0.072,0.261 0.133,0.524 0.188,0.789 0.026,0.127 0.051,0.256 0.069,0.384 -0.035,-0.256 -0.008,-0.027 0,0.1 0.014,0.264 0.007,0.525 0.01,0.788 0,0.286 0.029,-0.1 0.034,-0.134 -0.019,0.149 -0.052,0.3 -0.081,0.446 a 9.789,9.789 0 0 1 -0.5,1.768 c 0.084,-0.206 -0.153,0.313 -0.191,0.385 -0.119,0.226 -0.252,0.444 -0.388,0.66 a 5.947,5.947 0 0 1 -0.841,0.966 4.593,4.593 0 0 1 -0.971,0.758 12.445,12.445 0 0 1 -1.639,0.895 c -2.932,1.316 -6.35,1.072 -9.478,0.952 -3.089,-0.118 -3.084,4.682 0,4.8 6.271,0.24 14.134,-0.3 17.462,-6.608 a 11.627,11.627 0 0 0 -4.371,-15.349 52.524,52.524 0 0 0 -9.849,-3.7 c -2.97,-0.871 -4.239,3.759 -1.276,4.629 z"
     id="path52" />
  <path
     class="e"
     d="m 114.42165,206.26497 c -0.723,4.7 -2.666,12.466 -8.716,11.946 a 7.763,7.763 0 0 1 -3.813,-1.421 c 0.272,0.2 -0.378,-0.366 -0.444,-0.433 -0.13,-0.135 -0.454,-0.515 -0.482,-0.551 a 12.817,12.817 0 0 1 -0.973996,-1.652 22.875,22.875 0 0 1 -2.009,-8.121 2.461,2.461 0 0 0 -2.4,-2.4 2.419,2.419 0 0 0 -2.4,2.4 c 0.435,5.226 1.768,12.228 6.686,15.164 a 11.682,11.682 0 0 0 9.637996,1.291 12.516,12.516 0 0 0 6.741,-6.052 27.554,27.554 0 0 0 2.8,-8.9 2.477,2.477 0 0 0 -1.676,-2.952 2.418,2.418 0 0 0 -2.953,1.676 z"
     id="path53" />
  <path
     class="e"
     d="m 94.378654,182.79197 c -4.96,0.679 -11.034,2.3 -14.087,6.657 a 9.262,9.262 0 0 0 -0.463,9.71 15.4,15.4 0 0 0 4.877,5.091 21.593,21.593 0 0 0 10.95,3.312 2.4,2.4 0 0 0 0,-4.8 17.172,17.172 0 0 1 -7.651,-2.106 c -0.458,-0.266 -0.9,-0.562 -1.327,-0.868 -0.33,-0.232 0.128,0.129 -0.262,-0.212 -0.226,-0.2 -0.452,-0.392 -0.669,-0.6 q -0.466,-0.447 -0.889,-0.939 c -0.061,-0.072 -0.455,-0.576 -0.239,-0.286 0.2,0.265 -0.159,-0.234 -0.229,-0.338 -1.217,-1.822 -1.142,-3.463 -0.027,-5.436 0.242,-0.427 -0.1,0.183 -0.13,0.156 a 3.392,3.392 0 0 1 0.24,-0.282 c 0.215,-0.228 0.432,-0.451 0.666,-0.661 0.145,-0.13 0.3,-0.25 0.446,-0.376 -0.354,0.3 -0.14,0.107 0.1,-0.06 0.378,-0.266 0.77,-0.511 1.172,-0.739 a 16.7,16.7 0 0 1 1.657,-0.824 c 0.25,-0.107 0.031,-0.011 -0.016,0.008 0.2,-0.079 0.393,-0.154 0.591,-0.227 q 0.57,-0.212 1.15,-0.392 a 33.14,33.14 0 0 1 5.418,-1.16 2.414,2.414 0 0 0 1.676,-2.952 2.464,2.464 0 0 0 -2.952,-1.676 z"
     id="path54" />
  <path
     class="e"
     d="m 106.95665,190.70597 a 4.945,4.945 0 0 1 2.939,9.177 5.35,5.35 0 0 1 -6.455,-0.465 5.184,5.184 0 0 1 -1.279,-4.71 5.293,5.293 0 0 1 4.795,-4.002 z"
     id="path55" />
</svg>
